<svg width="455" height="1515" viewBox="0 0 455 1515" fill="none" xmlns="http://www.w3.org/2000/svg">
<path d="M134.987 297.008C155.963 337.415 111.951 397.714 93.9212 449.316C75.531 500.679 59.4561 551.675 21.687 558.646C-15.5667 565.621 -91.0662 532.835 -155.376 500.763C-220.046 468.453 -220.951 392.893 -281.243 396.029C-341.535 399.164 -434.72 318.303 -447.761 266.672C-460.597 215.513 -364.227 157.718 -343.671 128.958C-333.29 114.058 -311.903 106.7 -285.713 104.935C-261.341 103.293 -232.809 106.493 -205.114 112.966C-147.454 126.867 -93.0375 155.09 -27.8518 187.405C37.334 219.719 113.65 256.363 134.987 297.008Z" fill="url(#paint0_linear)"/>
<path d="M644.205 766.513C681.769 804.959 697.643 878.28 665.399 898.37C633.234 919.011 553.706 926.169 477 940C400.845 953.752 327.277 974.493 303.032 962.238C279.103 950.218 303.977 865.141 321.477 806.98C339.292 749.054 349.732 718.045 370.021 704.731C390.311 691.417 420.371 695.248 442.014 701.132C463.342 706.78 476.488 714.166 512.136 719.724C548.02 724.967 606.957 728.303 644.205 766.513Z" fill="url(#paint1_linear)"/>
<rect y="1226" width="455" height="271" fill="#3131F4"/>
<path d="M479.294 1103.96C511.428 1137.42 523.66 1202.55 494.824 1221.27C466.044 1240.47 395.921 1248.74 328.123 1262.91C260.812 1276.99 -5.35259 1297.26 -26.389 1286.88C-47.154 1276.71 -23.2659 1200.11 -6.49996 1147.73C10.5374 1095.56 45 1062.55 84.5 1050.31C124 1038.08 216 1054.82 266.5 1067.5C317 1080.18 360.275 1046.19 391.5 1050.31C422.94 1054.15 447.433 1070.7 479.294 1103.96Z" fill="#3131F4"/>
<defs>
<linearGradient id="paint0_linear" x1="-329.124" y1="80.5828" x2="-7.35381" y2="474.286" gradientUnits="userSpaceOnUse">
<stop stop-color="#DF584C"/>
<stop offset="1" stop-color="#E3685D"/>
</linearGradient>
<linearGradient id="paint1_linear" x1="302.072" y1="691.716" x2="702.177" y2="999.103" gradientUnits="userSpaceOnUse">
<stop stop-color="#6C6CFE"/>
<stop offset="1" stop-color="#3131F4"/>
</linearGradient>
</defs>
</svg>
