<svg width="141" height="456" viewBox="0 0 141 456" fill="none" xmlns="http://www.w3.org/2000/svg">
<path d="M134.987 193.008C155.963 233.415 111.951 293.714 93.9212 345.316C75.531 396.679 59.4561 447.675 21.687 454.646C-15.5667 461.621 -91.0662 428.835 -155.376 396.763C-220.046 364.453 -220.951 288.893 -281.243 292.029C-341.535 295.164 -434.72 214.303 -447.761 162.672C-460.597 111.513 -364.227 53.7184 -343.671 24.9579C-333.29 10.0582 -311.903 2.70035 -285.713 0.935202C-261.341 -0.707396 -232.809 2.49308 -205.114 8.96593C-147.454 22.8668 -93.0375 51.0903 -27.8518 83.4049C37.334 115.719 113.65 152.363 134.987 193.008Z" fill="url(#paint0_linear)"/>
<defs>
<linearGradient id="paint0_linear" x1="-329.124" y1="-23.4172" x2="-7.35381" y2="370.286" gradientUnits="userSpaceOnUse">
<stop stop-color="#DF584C"/>
<stop offset="1" stop-color="#E3685D"/>
</linearGradient>
</defs>
</svg>
