<svg width="199" height="238" viewBox="0 0 199 238" fill="none" xmlns="http://www.w3.org/2000/svg">
<path d="M103.393 190.399C141.733 190.399 172.813 159.853 172.813 122.173C172.813 84.492 141.733 53.9459 103.393 53.9459C65.054 53.9459 33.9737 84.492 33.9737 122.173C33.9737 159.853 65.054 190.399 103.393 190.399Z" fill="#6C6CFE"/>
<path d="M202.088 100.33C191.374 96.8835 175.69 96.5947 161.797 114.799C161.797 114.799 140.525 96.5058 116.594 114.799L113.935 70.3726C113.935 70.3726 112.759 68.7852 110.938 66.471L112.391 66.617C112.391 66.617 121.811 66.617 123.381 63.1573L128.609 67.8935C130.676 69.6015 133.751 69.3849 135.549 67.404L148.477 53.1597C150.043 51.4342 150.171 48.8677 148.783 47.0002L134.372 28.56L91.9804 47.5889C91.9804 47.5889 90.4087 48.2704 90.0027 49.4667C87.3438 57.3064 66.0715 133.094 66.0715 138.32V144.387C66.0715 145.516 66.5865 146.574 67.4905 147.27C68.644 148.159 74.3808 149.715 76.708 151.387C86.744 158.601 102.363 171.218 119.253 174.907C143.184 180.133 172.433 172.294 172.433 172.294C172.433 172.294 182.5 196.374 203.772 201.6V209.44" fill="#FFDED5"/>
<path d="M203.771 212.613C201.986 212.613 200.542 211.192 200.542 209.439V203.99C183.455 198.562 173.81 182.313 170.626 176.007C162.746 177.827 139.019 182.474 118.554 178.004C102.966 174.6 88.8395 164.233 78.525 156.663C77.2133 155.701 75.971 154.789 74.8046 153.949C73.8239 153.245 71.4588 152.356 69.7313 151.705C67.5301 150.878 66.3419 150.414 65.5032 149.77C63.8129 148.468 62.8451 146.507 62.8451 144.387V138.322C62.8451 132.291 84.4661 55.7563 86.9418 48.4639C87.7587 46.0562 90.1989 44.8955 90.6816 44.6861L133.035 25.6738C134.391 25.0646 136.017 25.4541 136.935 26.6282L151.346 45.0685C153.663 48.1831 153.448 52.4488 150.889 55.2715L137.96 69.5158C134.983 72.801 129.961 73.1556 126.534 70.3234L123.399 67.4865C121.52 68.5789 119.148 69.158 117.03 69.4635C117.102 69.6975 117.147 69.9411 117.159 70.187L119.483 109.006C138.162 98.0132 154.826 106.311 161.186 110.44C175.734 93.2254 191.895 93.7085 203.091 97.3158C204.788 97.86 205.712 99.6522 205.157 101.318C204.605 102.981 202.773 103.895 201.086 103.347C186.964 98.8017 174.612 103.296 164.38 116.705C163.841 117.412 163.027 117.866 162.135 117.957C161.221 118.043 160.348 117.77 159.673 117.188C158.884 116.522 140.045 100.892 118.578 117.305C117.629 118.024 116.352 118.178 115.261 117.689C114.17 117.203 113.442 116.161 113.372 114.986L110.771 71.5C110.263 70.8288 109.431 69.7443 108.384 68.4131C107.595 67.4103 107.488 66.041 108.116 64.9312C108.74 63.8237 109.973 63.1803 111.265 63.3151L112.549 63.4421C115.913 63.4111 119.807 62.5995 120.482 61.7792C120.907 60.8463 121.737 60.2124 122.755 60.0069C123.774 59.7975 124.808 60.1307 125.571 60.8233L130.799 65.5603C131.426 66.0759 132.501 65.9926 133.141 65.2921L146.07 51.0478C146.619 50.4417 146.662 49.5278 146.177 48.8725L133.377 32.4949L93.3227 50.475C93.1871 50.5385 92.9886 50.675 92.9224 50.7464C89.901 59.7967 69.519 133.307 69.3019 138.349V144.386C69.3019 144.498 69.3334 144.656 69.4851 144.771C69.7346 144.909 71.0648 145.412 72.0391 145.777C74.3381 146.642 76.9389 147.621 78.6162 148.825C79.7988 149.676 81.0597 150.601 82.3907 151.577C92.2346 158.804 105.717 168.699 119.954 171.809C142.837 176.805 171.3 169.307 171.587 169.231C173.145 168.814 174.8 169.606 175.421 171.084C175.516 171.31 185.161 193.756 204.553 198.521C205.991 198.874 207 200.143 207 201.599V209.44C207 211.192 205.556 212.613 203.771 212.613Z" fill="#4C241D"/>
<path d="M169.774 131.039C168.021 131.039 166.593 129.665 166.545 127.95C166.527 127.712 166.044 123.462 159.514 117.042C158.253 115.803 158.253 113.794 159.514 112.555C160.775 111.316 162.818 111.316 164.079 112.555C172.753 121.079 173.003 127.196 173.003 127.866C173.003 129.618 171.559 131.039 169.774 131.039Z" fill="#4C241D"/>
<path d="M137.751 166.468C124.759 166.468 115.146 162.34 108.843 158.289C99.6859 152.404 95.3916 145.47 95.2116 145.179C94.2938 143.676 94.7894 141.727 96.3183 140.825C97.8479 139.925 99.8248 140.409 100.742 141.905C101.354 142.892 116.082 165.992 150.483 158.736C152.246 158.364 153.945 159.459 154.317 161.174C154.692 162.888 153.582 164.575 151.839 164.943C146.765 166.011 142.07 166.468 137.751 166.468Z" fill="#6B4F5B"/>
<path d="M113.932 123.2C113.446 123.2 112.954 123.093 112.491 122.865C110.895 122.081 110.249 120.175 111.047 118.609L113.705 113.381C114.499 111.812 116.445 111.178 118.037 111.96C119.633 112.744 120.279 114.65 119.481 116.216L116.823 121.444C116.259 122.556 115.117 123.2 113.932 123.2Z" fill="#4C241D"/>
<path d="M201.684 183.308C201.346 183.308 201.002 183.255 200.662 183.143C194.024 180.97 189.159 174.474 186.898 170.897L173.457 175.303C171.754 175.859 169.938 174.957 169.373 173.297C168.809 171.634 169.723 169.837 171.413 169.281L187.365 164.055C188.897 163.556 190.552 164.237 191.272 165.642C192.599 168.228 197.234 175.331 202.705 177.122C204.395 177.677 205.31 179.473 204.745 181.135C204.297 182.466 203.037 183.308 201.684 183.308Z" fill="#4C241D"/>
</svg>
