<svg width="101" height="31" viewBox="0 0 101 31" fill="none" xmlns="http://www.w3.org/2000/svg">
<path d="M73.4681 0L83.5382 21.2519V31H90.93V21.2519L101 0H92.6976L87.3412 12.5937H87.1269L81.7706 0H73.4681Z" fill="white"/>
<path d="M34.4148 9.00995e-06H41.8963C41.8963 9.00995e-06 42.1343 3.00947 46.3852 3.10001C50.6361 3.19055 50.8741 9.00995e-06 50.8741 9.00995e-06H58.3556V10.3333H52.3704V31H40.4V10.3333H34.4148V9.00995e-06Z" fill="white"/>
<path d="M0 31H7.48148V17.7143H19.4519V11.8095H7.48148V5.90477H20.9481V0.0805264H0V31Z" fill="white"/>
<path d="M31.4222 0.0805264H24.0904V31H31.4222V0.0805264Z" fill="white"/>
<path d="M61.4094 31H80.5007V24.8L68.8296 24.8V0.0805219L61.4094 0.0805264V31Z" fill="white"/>
</svg>
